<?xml version="1.0" standalone="no"?>
<!DOCTYPE svg PUBLIC "-//W3C//DTD SVG 20010904//EN"
 "http://www.w3.org/TR/2001/REC-SVG-20010904/DTD/svg10.dtd">
<svg version="1.0" xmlns="http://www.w3.org/2000/svg"
 width="190.000000pt" height="190.000000pt" viewBox="0 0 190.000000 190.000000"
 preserveAspectRatio="xMidYMid meet">
<metadata>
Created by potrace 1.14, written by Peter Selinger 2001-2017
</metadata>
<g transform="translate(0.000000,190.000000) scale(0.100000,-0.100000)"
fill="#000000" stroke="none">
<path d="M931 1881 c-5 -9 -9 -58 -9 -109 0 -78 2 -94 17 -102 32 -17 41 8 41
116 0 93 -2 102 -20 107 -13 3 -24 -1 -29 -12z"/>
<path d="M277 1623 c-15 -15 -4 -33 64 -101 39 -40 73 -72 74 -72 15 0 35 15
35 26 0 17 -135 154 -153 154 -7 0 -17 -3 -20 -7z"/>
<path d="M1521 1556 c-64 -64 -73 -77 -61 -90 7 -9 18 -16 25 -16 6 0 44 33
83 74 50 51 70 79 66 90 -12 30 -40 16 -113 -58z"/>
<path d="M815 1496 c-106 -28 -190 -79 -271 -161 -63 -65 -127 -178 -139 -245
-4 -19 -10 -53 -13 -75 -11 -58 3 -182 27 -249 40 -114 115 -213 208 -277 l43
-30 0 -128 c0 -138 1 -141 54 -141 19 0 22 -6 23 -40 1 -48 33 -100 77 -126
33 -19 123 -28 198 -18 74 9 130 77 132 159 1 15 9 21 31 23 16 2 33 9 37 15
4 7 8 67 8 133 l0 121 41 28 c105 73 200 215 229 343 42 184 -17 381 -156 517
-72 72 -175 133 -254 151 -55 13 -226 13 -275 0z"/>
<path d="M10 960 c-17 -31 9 -40 111 -40 100 0 128 10 109 40 -7 12 -33 15
-110 16 -86 1 -102 -1 -110 -16z"/>
<path d="M1670 960 c-17 -31 9 -40 116 -40 105 0 124 8 103 41 -6 10 -34 14
-109 15 -85 0 -103 -2 -110 -16z"/>
<path d="M345 379 c-53 -51 -75 -79 -73 -94 5 -34 38 -18 111 53 70 70 76 82
52 102 -12 10 -27 0 -90 -61z"/>
<path d="M1460 431 c-9 -17 0 -29 57 -86 86 -84 99 -92 113 -65 9 18 1 29 -65
95 -42 41 -81 75 -85 75 -5 0 -14 -9 -20 -19z"/>
</g>
</svg>
