<?xml version="1.0" encoding="UTF-8" standalone="no"?>
<!DOCTYPE svg PUBLIC "-//W3C//DTD SVG 20010904//EN"
              "http://www.w3.org/TR/2001/REC-SVG-20010904/DTD/svg10.dtd">

<svg xmlns="http://www.w3.org/2000/svg"
     width="0.322222in" height="0.322222in"
     viewBox="0 0 29 29">
  <path id="search_icon"
        d="M 26.97,11.69
           C 26.97,17.02 22.64,21.35 17.31,21.35
             11.98,21.35 7.65,17.02 7.65,11.69
             7.65,6.36 11.98,2.03 17.31,2.03
             22.64,2.03 26.97,6.36 26.97,11.69 Z
           M 29.00,11.69
           C 29.00,18.14 23.77,23.38 17.31,23.38
             10.86,23.38 5.62,18.14 5.62,11.69
             5.62,5.23 10.86,0.00 17.31,0.00
             23.77,0.00 29.00,5.23 29.00,11.69 Z
           M 9.01,19.99
           C 9.01,19.99 2.87,26.13 2.87,26.13" />
</svg>
